<?xml version="1.0" encoding="iso-8859-1"?>
<!-- Uploaded to: SVG Repo, www.svgrepo.com, Generator: SVG Repo Mixer Tools -->
<!DOCTYPE svg PUBLIC "-//W3C//DTD SVG 1.1//EN" "http://www.w3.org/Graphics/SVG/1.1/DTD/svg11.dtd">
<svg fill="#000000" version="1.1" id="Capa_1" xmlns="http://www.w3.org/2000/svg" xmlns:xlink="http://www.w3.org/1999/xlink" 
	 width="800px" height="800px" viewBox="0 0 585.918 585.918"
	 xml:space="preserve">
<g>
	<path d="M53.21,271.812c-4.176,0.134-6.864,0.64-8.438,1.103v60.402c1.575,0.441,4.139,0.483,6.465,0.524
		c17.187,0.432,28.651-10.068,28.651-32.755C80.011,281.366,69.567,271.282,53.21,271.812z"/>
	<path d="M357.396,535.335c0.776,0.052,1.543,0.114,2.33,0.114h177.39c20.755,0,37.627-16.883,37.627-37.627V86.604
		c0-20.746-16.872-37.628-37.627-37.628h-177.39c-0.787,0-1.554,0.074-2.33,0.124V0L11.176,46.208v492.308l346.22,47.402V535.335z
		 M359.726,70.479h177.39c8.892,0,16.125,7.232,16.125,16.125v411.218c0,8.892-7.233,16.127-16.125,16.127h-177.39
		c-0.798,0-1.563-0.117-2.33-0.231v-96.316h172.096c0.924,0,1.67-0.746,1.67-1.686v-71.25c0-0.357-0.141-0.692-0.388-0.966
		l-17.602-112.309c-0.12-0.819-0.813-1.42-1.654-1.42H357.396V70.715C358.156,70.607,358.928,70.479,359.726,70.479z
		 M399.144,259.255c-16.357,0-31.118,3.451-41.759,9v-8.134c11.832-4.396,26.331-7.017,42.026-7.017
		c39.801,0,72.064,16.654,72.064,37.188c0,20.536-32.264,37.176-72.064,37.176c-15.695,0-30.194-2.604-42.026-7.008v-9.906
		c10.641,5.544,25.401,8.998,41.759,8.998c32.415,0,58.688-13.501,58.688-30.143C457.832,272.749,431.569,259.255,399.144,259.255z
		 M518.898,355.049v50.09H357.396v-50.09H518.898z M86.345,338.964c-9.155,8.115-22.824,11.634-39.15,11.135
		c-9.562-0.29-16.25-1.176-20.743-1.968v-89.338c6.633-1.521,15.401-2.596,24.785-3.027c15.929-0.729,26.47,2.016,34.843,8.601
		c9.154,7.063,14.971,18.764,14.971,35.814C101.051,318.661,94.849,331.311,86.345,338.964z M198.223,353.611l-1.532-39.728
		c-0.462-12.457-0.924-27.52-0.924-42.591l-0.462,0.016c-3.205,13.284-7.446,28.045-11.37,40.129l-12.229,39.728l-17.363-0.493
		l-10.289-38.91c-3.118-11.663-6.354-25.768-8.601-38.674l-0.283,0.01c-0.548,13.39-0.979,28.682-1.683,41.017l-1.671,37.533
		l-19.353-0.576l5.848-97.638l28.286-1.278l9.471,33.166c3.044,11.617,6.102,24.179,8.283,36.054h0.441
		c2.784-11.732,6.17-25.182,9.43-36.565l10.761-34.386l30.654-1.38l5.861,105.266L198.223,353.611z M338.445,352.509
		c-8.693,2.471-24.904,5.689-40.778,5.207c-21.388-0.651-36.473-6.095-46.814-15.969c-10.176-9.408-15.696-23.403-15.551-39.057
		c0.165-35.425,27.065-56.89,65.198-58.635c15.561-0.717,27.771,1.58,33.871,4.013l-5.91,20.798
		c-6.768-2.488-15.104-4.402-28.32-3.977c-22.143,0.709-38.444,12.825-38.444,36.332c0,22.39,14.758,35.843,36.504,36.2
		c6.202,0.104,11.204-0.473,13.362-1.443v-23.481h-18.47v-19.575l45.348-0.598v60.186H338.445z"/>
	<path d="M485.613,389.568h21.17c0.924,0,1.67-0.743,1.67-1.678v-21.155c0-0.924-0.746-1.675-1.67-1.675h-21.17
		c-0.925,0-1.676,0.751-1.676,1.675v21.155C483.948,388.825,484.693,389.568,485.613,389.568z"/>
	<path d="M366.131,389.568h21.165c0.925,0,1.67-0.743,1.67-1.678v-21.155c0-0.924-0.745-1.675-1.67-1.675h-21.165
		c-0.924,0-1.675,0.751-1.675,1.675v21.155C364.456,388.825,365.207,389.568,366.131,389.568z"/>
</g>
</svg>